HIERARCHY
ROOT Hips
{
	OFFSET 0.000000 0.000000 0.000000 
	CHANNELS 6 Xposition Yposition Zposition Yrotation Zrotation Xrotation 
	JOINT Lumbar
	{
		OFFSET 0.000000 0.000000 0.000000 
		CHANNELS 3 Zrotation Xrotation Yrotation
		JOINT Neck
		{
			OFFSET 0.000000 0.445665 0.000000 
			CHANNELS 3 Zrotation Xrotation Yrotation
			End Site
			{
				OFFSET 0.000000 0.227535 0.000000 
			}
		}
		JOINT RightShoulder
		{
			OFFSET 0.019635 0.377685 0.194865 
			CHANNELS 3 Zrotation Xrotation Yrotation
			JOINT RightElbow
			{
				OFFSET 0.000000 -0.243375 0.000000 
				CHANNELS 2 Zrotation Yrotation
				JOINT RightWrist
				{
					OFFSET 0.000000 -0.264825 0.000000 
					CHANNELS 2 Zrotation Xrotation
					End Site
					{
						OFFSET 0.006600 -0.176220 0.000990 
					}
				}
			}
		}
		JOINT LeftShoulder
		{
			OFFSET 0.019635 0.377685 -0.194865 
			CHANNELS 3 Zrotation Xrotation Yrotation
			JOINT LeftElbow
			{
				OFFSET 0.000000 -0.243375 0.000000 
				CHANNELS 2 Zrotation Yrotation
				JOINT LeftWrist
				{
					OFFSET 0.000000 -0.264825 0.000000 
					CHANNELS 2 Zrotation Xrotation
					End Site
					{
						OFFSET 0.006600 -0.176220 -0.000990 
					}
				}
			}
		}
	}
	JOINT RightHip
	{
		OFFSET 0.052140 -0.069960 0.075570 
		CHANNELS 3 Zrotation Xrotation Yrotation
		JOINT RightKnee
		{
			OFFSET 0.000000 -0.402270 0.000000 
			CHANNELS 1 Zrotation
			JOINT RightAnkle
			{
				OFFSET 0.000000 -0.404085 0.000000 
				CHANNELS 3 Zrotation Xrotation Yrotation
				End Site
				{
					OFFSET 0.204105 -0.089430 0.008415 
				}
			}
		}
	}
	JOINT LeftHip
	{
		OFFSET 0.052140 -0.069960 -0.075570 
		CHANNELS 3 Zrotation Xrotation Yrotation
		JOINT LeftKnee
		{
			OFFSET 0.000000 -0.402270 0.000000 
			CHANNELS 1 Zrotation
			JOINT LeftAnkle
			{
				OFFSET 0.000000 -0.404085 0.000000 
				CHANNELS 3 Zrotation Xrotation Yrotation
				End Site
				{
					OFFSET 0.204105 -0.089430 -0.008415 
				}
			}
		}
	}
}
MOTION
Frames: 30
Frame Time: 0.02
-0.41998 -0.38329 0.04248 741.14418 -11.55306 -4.84954 15.39798 3.50927 -14.29571 -11.74724 9.3375 -2.11994 -6.55423 -14.24726 34.16808 101.93834 81.53906 -12.98893 -1.86847 60.07631 30.32208 -3.61045 55.8742 -65.36237 -15.50937 -1.75309 93.35139 -8.47662 -12.38083 -81.11173 -8.42686 -2.67459 -3.62341 96.01123 5.76263 5.89757 -80.83365 -10.1269 2.79287 3.76959
-0.41959 -0.38304 0.043 741.23077 -11.47909 -4.67587 15.19999 3.55845 -14.22289 -11.71867 8.35586 -2.11994 -6.698 -14.17784 33.76551 101.89453 81.5805 -12.14584 -2.17005 61.08055 29.95823 -4.87073 59.75012 -67.91534 -15.75489 -0.72391 93.21966 -8.58817 -12.32458 -81.09825 -8.37998 -2.65061 -3.60976 95.78049 5.71409 6.05054 -80.69904 -10.11063 2.7877 3.76581
-0.41923 -0.38286 0.04373 741.34422 -11.3097 -4.48032 14.95412 3.60118 -14.12094 -11.69636 7.06297 -2.11994 -6.86439 -14.09881 33.21196 101.80415 81.63236 -10.86754 -2.4877 62.49997 29.71485 -6.6107 63.83964 -72.06209 -15.59082 0.27127 92.96305 -8.68955 -12.25648 -81.05385 -8.32014 -2.62713 -3.5958 95.42154 5.66598 6.2255 -80.52703 -10.08723 2.7788 3.75974
-0.41886 -0.38264 0.04437 741.44432 -11.18514 -4.29561 14.73304 3.64649 -14.03152 -11.6754 5.91018 -2.11994 -7.024 -14.03326 32.73745 101.74084 81.67937 -9.82021 -2.81469 63.71645 29.44887 -8.19873 67.80452 -75.42317 -15.6393 1.27813 92.7653 -8.79251 -12.19258 -81.02307 -8.26676 -2.60367 -3.58214 95.12423 5.6194 6.38971 -80.37371 -10.0679 2.77163 3.7548
-0.41847 -0.38243 0.04501 741.55005 -11.05354 -4.10647 14.50014 3.69404 -13.94008 -11.6375 4.76108 -2.11994 -7.17633 -13.92819 32.20859 101.65574 81.72699 -8.62555 -3.07514 64.99153 29.04614 -9.51434 71.94824 -79.05849 -15.61298 2.32467 92.55658 -8.90976 -12.13478 -80.99351 -8.21037 -2.57882 -3.5676 94.81082 5.56467 6.55704 -80.21243 -10.04503 2.76411 3.74941
-0.41814 -0.38222 0.04568 741.65007 -10.91412 -3.92204 14.27995 3.73507 -13.84816 -11.63572 3.53317 -2.11994 -7.34597 -13.90438 31.76193 101.60422 81.77605 -7.63599 -3.4754 66.23577 28.95418 -11.50129 75.7431 -82.46329 -15.60513 3.27065 92.34188 -8.99417 -12.06122 -80.9545 -8.15737 -2.55713 -3.55491 94.5014 5.52725 6.72263 -80.05947 -10.02781 2.75655 3.74446
-0.41796 -0.38197 0.04635 741.72837 -10.77869 -3.75075 14.10903 3.7599 -13.75825 -11.73685 2.13966 -2.11994 -7.56148 -14.09678 31.56837 101.6507 81.82277 -7.33478 -4.27192 67.39548 29.73016 -15.31478 78.55675 -85.25268 -16.08399 3.95579 92.1412 -8.99154 -11.94483 -80.89438 -8.11727 -2.54391 -3.54739 94.232 5.539 6.88429 -79.93503 -10.02841 2.74919 3.74101
-0.41785 -0.38172 0.04703 741.79967 -10.6386 -3.58595 13.9522 3.77818 -13.67021 -11.87331 0.68262 -2.11994 -7.79149 -14.37291 31.46609 101.73289 81.8711 -7.25386 -5.20529 68.49481 30.80878 -19.76856 80.99479 -87.69274 -16.5428 4.536 91.93928 -8.95578 -11.81321 -80.82629 -8.08109 -2.53395 -3.54177 93.97187 5.56812 7.04244 -79.82102 -10.03488 2.74204 3.73815
-0.41772 -0.3815 0.0477 741.87381 -10.49913 -3.42163 13.7869 3.79925 -13.58449 -11.99032 -0.73029 -2.11994 -8.012 -14.61815 31.33048 101.80262 81.92124 -7.06242 -6.06676 69.55302 31.72285 -23.87328 83.57679 -90.01185 -16.77606 5.15544 91.73804 -8.9343 -11.68983 -80.76364 -8.0429 -2.52263 -3.53528 93.70907 5.5883 7.1981 -79.70467 -10.03838 2.73523 3.73525
-0.41756 -0.38118 0.0484 741.95079 -10.36195 -3.24208 13.62774 3.82108 -13.48436 -12.12142 -2.22086 -2.11994 -8.2475 -14.83441 31.15505 101.85618 81.96148 -6.8973 -6.97107 70.90448 32.75215 -28.24918 86.28976 -93.52046 -17.94138 5.80999 91.53122 -8.91591 -11.56048 -80.69242 -8.00502 -2.51074 -3.52875 93.43458 5.61241 7.37146 -79.57684 -10.04289 2.72648 3.73136
-0.41747 -0.38105 0.04903 742.01928 -10.22099 -3.09604 13.46093 3.83961 -13.41499 -12.23206 -3.55771 -2.11994 -8.45268 -15.12904 31.08618 101.95089 82.022 -6.73822 -7.81686 71.63858 33.61542 -32.19441 88.62577 -94.50628 -17.22169 6.36663 91.33823 -8.88314 -11.44013 -80.63734 -7.96783 -2.50087 -3.52282 93.18915 5.63305 7.50721 -79.47592 -10.04682 2.72181 3.72964
-0.41755 -0.38144 0.04948 742.07074 -10.064 -3.0415 13.25984 3.85279 -13.4311 -12.27259 -4.47813 -2.11994 -8.5898 -15.63653 31.29056 102.16436 82.14366 -6.5197 -8.48015 70.56472 33.91304 -34.89247 90.11493 -88.09177 -10.81338 6.67884 91.17687 -8.82082 -11.34844 -80.63102 -7.92955 -2.49512 -3.51766 93.0153 5.63457 7.53641 -79.44671 -10.04749 2.72906 3.73414
-0.41769 -0.38201 0.04986 742.11301 -9.9051 -3.02055 13.05266 3.86252 -13.47797 -12.29216 -5.2355 -2.11994 -8.69259 -16.21669 31.59928 102.41568 82.28491 -6.30571 -9.07692 68.8893 34.03779 -37.11525 91.22002 -79.23231 -2.59454 6.89573 91.03129 -8.74508 -11.26661 -80.64102 -7.89223 -2.49138 -3.51313 92.87222 5.63276 7.52826 -79.44441 -10.04746 2.7403 3.74073
-0.41781 -0.38249 0.05027 742.15605 -9.75196 -2.98382 12.85485 3.87243 -13.51041 -12.32466 -6.05069 -2.11994 -8.79782 -16.75275 31.86055 102.64076 82.4131 -6.10683 -9.69639 67.56756 34.264 -39.48706 92.42929 -71.83404 4.46363 7.15678 90.88372 -8.67383 -11.17998 -80.64221 -7.8559 -2.48716 -3.50862 92.71994 5.63622 7.53964 -79.43 -10.04795 2.74925 3.74609
-0.41793 -0.38302 0.0507 742.21262 -9.57792 -2.94906 12.62948 3.88794 -13.54525 -12.3443 -6.93775 -2.11994 -8.95741 -17.33924 32.12626 102.90511 82.55761 -5.84415 -10.35432 65.91454 34.40799 -42.15972 93.91171 -62.9761 12.9187 7.41247 90.71451 -8.60715 -11.09324 -80.64883 -7.81381 -2.48132 -3.50291 92.54778 5.62536 7.54084 -79.41542 -10.04782 2.76015 3.75263
-0.41806 -0.38347 0.05107 742.23968 -9.44705 -2.91862 12.46008 3.89109 -13.58179 -12.38491 -7.63464 -2.11994 -8.99762 -17.83593 32.40478 103.09632 82.67436 -5.71098 -10.91221 64.79743 34.67343 -44.09013 94.7526 -56.54526 18.93211 7.6557 90.59368 -8.52952 -11.01043 -80.64832 -7.78373 -2.47917 -3.49977 92.42411 5.64215 7.55353 -79.40747 -10.04872 2.768 3.75723
-0.41828 -0.38369 0.0513 742.1809 -9.43607 -2.88738 12.44503 3.86075 -13.62069 -12.49129 -7.85287 -2.11994 -8.69699 -18.07435 32.70657 103.0755 82.69696 -5.94852 -11.22903 65.41248 35.35647 -44.03312 93.7962 -57.7492 17.41469 7.90919 90.6072 -8.4136 -10.92581 -80.62243 -7.78796 -2.48759 -3.50416 92.42834 5.74601 7.61474 -79.41129 -10.05271 2.76595 3.75561
-0.41851 -0.38382 0.05146 742.09391 -9.4686 -2.86012 12.48673 3.81823 -13.65935 -12.61866 -7.88378 -2.11994 -8.28056 -18.21815 33.0149 102.97992 82.69402 -6.31285 -11.44289 66.57011 36.15912 -43.25161 92.22973 -61.43144 13.43109 8.15043 90.66815 -8.28927 -10.84662 -80.58918 -7.80401 -2.49947 -3.51102 92.48013 5.87599 7.68753 -79.42086 -10.05774 2.76079 3.75201
-0.41873 -0.38397 0.05164 742.02434 -9.48109 -2.83404 12.50356 3.78135 -13.69458 -12.73464 -7.99582 -2.11994 -7.93045 -18.39985 33.31071 102.91871 82.71019 -6.60832 -11.69129 67.40832 36.87871 -42.83494 91.02543 -63.74577 10.8168 8.38327 90.70423 -8.17653 -10.77192 -80.56046 -7.8137 -2.50914 -3.51634 92.50898 5.98723 7.74984 -79.42762 -10.06218 2.7574 3.74954
-0.419 -0.38419 0.05187 741.93545 -9.49462 -2.7967 12.51646 3.74362 -13.74541 -12.85833 -8.11913 -2.11994 -7.52309 -18.60535 33.64969 102.85648 82.69243 -6.95021 -11.99073 68.52543 37.71188 -42.25493 89.45686 -66.9446 7.2609 8.66983 90.75433 -8.03103 -10.66885 -80.52724 -7.82747 -2.52154 -3.52339 92.54401 6.1268 7.83233 -79.43586 -10.06698 2.75265 3.7462
-0.41915 -0.38426 0.05198 741.87968 -9.51639 -2.78309 12.55091 3.70515 -13.76383 -12.97044 -8.17654 -2.11994 -7.20574 -18.73823 33.9 102.77901 82.7427 -7.22712 -12.15831 69.20787 38.34128 -41.84536 88.49728 -68.9844 5.00121 8.84514 90.78695 -7.9513 -10.62519 -80.50151 -7.83568 -2.52909 -3.52747 92.57766 6.21435 7.8767 -79.4424 -10.07142 2.7499 3.74416
-0.41891 -0.3839 0.05177 741.92693 -9.54985 -2.83589 12.63306 3.66479 -13.68789 -13.05246 -8.09843 -2.11994 -7.18444 -18.6899 33.89344 102.66974 82.95314 -7.27777 -12.00438 68.47417 38.35979 -42.11755 89.45867 -66.672 7.40847 8.69623 90.75392 -8.06084 -10.75126 -80.49741 -7.82441 -2.52219 -3.52243 92.59052 6.14547 7.80728 -79.43948 -10.07364 2.75392 3.74645
-0.41854 -0.3834 0.05144 742.00774 -9.59013 -2.912 12.73478 3.62461 -13.57998 -13.12101 -7.96085 -2.11994 -7.2546 -18.57205 33.79848 102.54891 83.2374 -7.26086 -11.71891 67.3001 38.17305 -42.58228 91.04089 -63.20814 11.11641 8.43935 90.70256 -8.23578 -10.93546 -80.50114 -7.80736 -2.51037 -3.51437 92.60108 6.02449 7.70031 -79.4351 -10.07567 2.75995 3.75007
-0.41825 -0.38298 0.05116 742.07001 -9.62762 -2.97596 12.82591 3.58626 -13.48995 -13.1911 -7.85133 -2.11994 -7.27012 -18.48825 33.75067 102.43855 83.51224 -7.28613 -11.48186 66.3887 38.09411 -42.93901 92.27955 -60.65886 13.88864 8.24634 90.66345 -8.37729 -11.08858 -80.50177 -7.79375 -2.50094 -3.50788 92.61619 5.93168 7.61452 -79.43353 -10.07846 2.76471 3.75292
-0.41788 -0.38249 0.0509 742.14477 -9.66552 -3.04633 12.9253 3.53959 -13.38632 -13.28083 -7.73211 -2.11994 -7.3356 -18.39106 33.67504 102.30396 83.69153 -7.2703 -11.28686 65.24313 37.95972 -43.35673 93.74879 -56.59866 17.98725 7.99302 90.60989 -8.53457 -11.2621 -80.50033 -7.77712 -2.49088 -3.50061 92.61864 5.82108 7.51193 -79.42332 -10.07844 2.77086 3.75642
-0.41764 -0.38211 0.05057 742.20235 -9.70338 -3.10923 13.0125 3.51022 -13.30278 -13.32673 -7.61978 -2.11994 -7.32173 -18.30617 33.63458 102.2176 84.07869 -7.31869 -10.97725 64.45951 37.88829 -43.70261 94.90222 -55.30963 19.7187 7.83649 90.58091 -8.67411 -11.40621 -80.50504 -7.76525 -2.48104 -3.49428 92.6457 5.73448 7.43501 -79.43043 -10.08417 2.77463 3.75889
-0.41778 -0.38212 0.05008 742.20015 -9.74111 -3.14229 13.05186 3.53044 -13.28807 -13.24975 -7.55565 -2.11994 -7.05456 -18.27519 33.72703 102.2719 85.09988 -7.59293 -10.35837 64.90073 38.05993 -43.80279 94.95632 -62.56165 14.12459 8.0027 90.62895 -8.75342 -11.46078 -80.52574 -7.76788 -2.47173 -3.49076 92.74634 5.72981 7.4404 -79.48781 -10.10632 2.77142 3.75829
-0.41805 -0.38225 0.04951 742.18031 -9.77803 -3.16761 13.07985 3.56777 -13.29367 -13.12974 -7.49819 -2.11994 -6.7073 -18.2589 33.85514 102.37488 86.31366 -7.92809 -9.6333 65.69502 38.29786 -43.82459 94.68724 -72.52369 6.19686 8.2646 90.70132 -8.81191 -11.48287 -80.55228 -7.77545 -2.463 -3.48838 92.87076 5.75044 7.47236 -79.56234 -10.13417 2.76574 3.75659
-0.41825 -0.38231 0.04898 742.17161 -9.81399 -3.1988 13.11882 3.59611 -13.28631 -13.03303 -7.42974 -2.11994 -6.40484 -18.23439 33.95771 102.45256 87.38766 -8.21308 -8.97445 66.25009 38.49243 -43.89014 94.6201 -80.82567 -0.33306 8.46386 90.75916 -8.87673 -11.51565 -80.57546 -7.78071 -2.45484 -3.48582 92.98057 5.75739 7.49074 -79.62748 -10.15906 2.76113 3.75534
-0.4185 -0.38242 0.04844 742.15143 -9.8558 -3.22109 13.13358 3.62959 -13.29348 -12.92107 -7.39493 -2.11994 -6.06942 -18.21386 34.097 102.54218 88.68319 -8.58849 -8.23744 67.12992 38.73588 -43.94062 94.34634 -90.86918 -8.21597 8.74063 90.83074 -8.95656 -11.56668 -80.6016 -7.78603 -2.44306 -3.48175 93.10588 5.77162 7.51452 -79.69889 -10.18544 2.75679 3.75433
